<?xml version="1.0" encoding="iso-8859-1"?>
<!-- Generator: Adobe Illustrator 16.0.0, SVG Export Plug-In . SVG Version: 6.00 Build 0)  -->
<!DOCTYPE svg PUBLIC "-//W3C//DTD SVG 1.1//EN" "http://www.w3.org/Graphics/SVG/1.1/DTD/svg11.dtd">
<svg version="1.1" id="Capa_1" xmlns="http://www.w3.org/2000/svg" xmlns:xlink="http://www.w3.org/1999/xlink" x="0px" y="0px"
	 width="338.223px" height="338.223px" viewBox="0 0 338.223 338.223" style="enable-background:new 0 0 338.223 338.223;"
	 xml:space="preserve">
<g>
	<g id="Artwork_27_">
		<g id="Layer_5_27_">
			<g>
				<path d="M200.326,141.527c-17.491-0.001-28.59,19.5-31.214,19.5c-2.295-0.001-12.938-19.5-31.216-19.501
					c-17.776,0.001-32.292,14.661-33.244,32.414c-0.535,10.029,2.698,17.66,7.253,24.574c9.103,13.811,48.898,47.059,57.265,47.059
					c8.549,0,47.984-33.128,57.145-47.059c4.568-6.944,7.791-14.545,7.254-24.574C232.619,156.187,218.105,141.526,200.326,141.527"
					/>
				<path d="M326.027,61.973h-48.053c0,0-2.84,0.011-2.84-2.737c0-5.624,0-22.494,0-22.494c0-2.919-2.287-5.308-5.084-5.308H63.07
					c-2.797,0-5.084,2.389-5.084,5.308v22.456c0,0,0.648,2.775-2.918,2.775c-7.645,0-44.452,0-44.452,0
					C5.165,61.973,0,66.749,0,72.588v223.584c0,5.84,4.777,10.616,10.616,10.616h316.99c5.84,0,10.617-4.776,10.617-10.616V76.125
					C338.223,68.162,337.158,61.973,326.027,61.973z M169.111,273.795c-49.383,0-89.414-40.031-89.414-89.414
					c0-49.381,40.031-89.414,89.414-89.414c49.383,0,89.415,40.032,89.415,89.414C258.525,233.764,218.494,273.795,169.111,273.795z
					 M312.406,114.103c0,3.057-2.477,5.535-5.535,5.535h-43.752c-3.057,0-5.535-2.479-5.535-5.535V99.081
					c0-3.057,2.479-5.535,5.535-5.535h43.752c3.059,0,5.535,2.479,5.535,5.535V114.103L312.406,114.103z"/>
			</g>
		</g>
	</g>
</g>
<g>
</g>
<g>
</g>
<g>
</g>
<g>
</g>
<g>
</g>
<g>
</g>
<g>
</g>
<g>
</g>
<g>
</g>
<g>
</g>
<g>
</g>
<g>
</g>
<g>
</g>
<g>
</g>
<g>
</g>
</svg>
